# xmcd
#
# Track frame offsets:
#	150
#	13734
#	29539
#	52002
#	65310
#	81334
#	94737
#	109069
#	120811
#	141717
#
# Disc length: 2089 seconds
# Revision: 0
# Processed by: cddbd v1.5.2PL0 Copyright (c) Steve Scherf et al.
# Submitted via: dBpowerAMP V12.0
#
DISCID=8708270a
DTITLE=Cal Williams Jr - Little Black Crow
DYEAR=2014
DGENRE=Blues Acoustic
TTITLE0=Down To The River
TTITLE1=Long Legged Woman
TTITLE2=Hard Time A Comin'
TTITLE3=Parchman Farm
TTITLE4=Kick Around
TTITLE5=Lay On The Cold Ground
TTITLE6=God Came To Claim My Soul
TTITLE7=One More Time
TTITLE8=Pale Blue Dress
TTITLE9=Lord Have Mercy
EXTD=
EXTT0=
EXTT1=
EXTT2=
EXTT3=
EXTT4=
EXTT5=
EXTT6=
EXTT7=
EXTT8=
EXTT9=
PLAYORDER=
